<mxfile host="app.diagrams.net" modified="2021-10-19T09:15:53.331Z" agent="5.0 (Windows NT 10.0; Win64; x64) AppleWebKit/537.36 (KHTML, like Gecko) Chrome/94.0.4606.81 Safari/537.36" etag="M1gquoTdlgHeqXTIGqCa" version="15.5.5" type="github">
  <diagram id="6a731a19-8d31-9384-78a2-239565b7b9f0" name="Page-1">
    <mxGraphModel dx="957" dy="1340" grid="1" gridSize="10" guides="1" tooltips="1" connect="1" arrows="1" fold="1" page="1" pageScale="1" pageWidth="1169" pageHeight="827" background="none" math="0" shadow="0">
      <root>
        <mxCell id="0" />
        <mxCell id="1" parent="0" />
        <mxCell id="2" value="start" style="shape=mxgraph.flowchart.terminator;strokeWidth=2;gradientColor=none;gradientDirection=north;fontStyle=0;html=1;" parent="1" vertex="1">
          <mxGeometry x="260" width="120" height="30" as="geometry" />
        </mxCell>
        <mxCell id="3" value="&lt;span style=&quot;color: rgb(36 , 41 , 47) ; font-family: , &amp;#34;blinkmacsystemfont&amp;#34; , &amp;#34;segoe ui&amp;#34; , &amp;#34;helvetica&amp;#34; , &amp;#34;arial&amp;#34; , sans-serif , &amp;#34;apple color emoji&amp;#34; , &amp;#34;segoe ui emoji&amp;#34; ; font-size: 16px ; text-align: left ; background-color: rgb(255 , 255 , 255)&quot;&gt;Get User Inputs&lt;/span&gt;" style="shape=mxgraph.flowchart.data;strokeWidth=2;gradientColor=none;gradientDirection=north;fontStyle=0;html=1;" parent="1" vertex="1">
          <mxGeometry x="240.5" y="80" width="159" height="80" as="geometry" />
        </mxCell>
        <mxCell id="olzbY2l3YCy1RPZY9AUt-94" value="" style="edgeStyle=orthogonalEdgeStyle;rounded=0;orthogonalLoop=1;jettySize=auto;html=1;fontSize=13;" edge="1" parent="1" source="4" target="olzbY2l3YCy1RPZY9AUt-91">
          <mxGeometry relative="1" as="geometry" />
        </mxCell>
        <mxCell id="4" value="&lt;div&gt;&lt;font color=&quot;#24292f&quot;&gt;&lt;span style=&quot;font-size: 13px&quot;&gt;Get Next Rover&lt;/span&gt;&lt;/font&gt;&lt;/div&gt;" style="shape=mxgraph.flowchart.data;strokeWidth=2;gradientColor=none;gradientDirection=north;fontStyle=0;html=1;" parent="1" vertex="1">
          <mxGeometry x="250.5" y="440" width="159" height="80" as="geometry" />
        </mxCell>
        <mxCell id="olzbY2l3YCy1RPZY9AUt-66" style="edgeStyle=orthogonalEdgeStyle;rounded=0;orthogonalLoop=1;jettySize=auto;html=1;entryX=0.5;entryY=0;entryDx=0;entryDy=0;fontSize=13;" edge="1" parent="1" source="5" target="olzbY2l3YCy1RPZY9AUt-65">
          <mxGeometry relative="1" as="geometry" />
        </mxCell>
        <mxCell id="5" value="Validation" style="shape=mxgraph.flowchart.data;strokeWidth=2;gradientColor=none;gradientDirection=north;fontStyle=0;html=1;" parent="1" vertex="1">
          <mxGeometry x="240.5" y="210" width="159" height="80" as="geometry" />
        </mxCell>
        <mxCell id="7" style="fontStyle=1;strokeColor=#003366;strokeWidth=1;html=1;" parent="1" source="2" target="3" edge="1">
          <mxGeometry relative="1" as="geometry" />
        </mxCell>
        <mxCell id="8" style="fontStyle=1;strokeColor=#003366;strokeWidth=1;html=1;" parent="1" source="3" target="5" edge="1">
          <mxGeometry relative="1" as="geometry" />
        </mxCell>
        <mxCell id="13" value="&lt;div style=&quot;text-align: left&quot;&gt;&lt;font color=&quot;#24292f&quot; size=&quot;1&quot;&gt;&lt;span style=&quot;background-color: rgb(255 , 255 , 255) ; font-size: 13px&quot;&gt;Predict the next&amp;nbsp;&lt;/span&gt;&lt;/font&gt;&lt;/div&gt;&lt;div style=&quot;text-align: left&quot;&gt;&lt;font color=&quot;#24292f&quot; size=&quot;1&quot;&gt;&lt;span style=&quot;background-color: rgb(255 , 255 , 255) ; font-size: 13px&quot;&gt;Facing Orientation&lt;/span&gt;&lt;/font&gt;&lt;/div&gt;" style="shape=mxgraph.flowchart.data;strokeWidth=2;gradientColor=none;gradientDirection=north;fontStyle=0;html=1;" parent="1" vertex="1">
          <mxGeometry x="250.5" y="800" width="159" height="80" as="geometry" />
        </mxCell>
        <mxCell id="21" value="" style="edgeStyle=elbowEdgeStyle;elbow=horizontal;fontStyle=1;strokeColor=#003366;strokeWidth=1;html=1;" parent="1" source="13" edge="1">
          <mxGeometry x="10" y="199" width="100" height="100" as="geometry">
            <mxPoint x="10" y="299" as="sourcePoint" />
            <mxPoint x="331" y="922" as="targetPoint" />
          </mxGeometry>
        </mxCell>
        <mxCell id="olzbY2l3YCy1RPZY9AUt-55" value="end" style="shape=mxgraph.flowchart.terminator;strokeWidth=2;gradientColor=none;gradientDirection=north;fontStyle=0;html=1;" vertex="1" parent="1">
          <mxGeometry x="440" y="344" width="120" height="30" as="geometry" />
        </mxCell>
        <mxCell id="olzbY2l3YCy1RPZY9AUt-83" value="" style="edgeStyle=orthogonalEdgeStyle;rounded=0;orthogonalLoop=1;jettySize=auto;html=1;fontSize=13;" edge="1" parent="1" source="olzbY2l3YCy1RPZY9AUt-59" target="olzbY2l3YCy1RPZY9AUt-80">
          <mxGeometry relative="1" as="geometry" />
        </mxCell>
        <mxCell id="olzbY2l3YCy1RPZY9AUt-59" value="&lt;div style=&quot;text-align: left&quot;&gt;&lt;font color=&quot;#24292f&quot; face=&quot;-apple-system, BlinkMacSystemFont, Segoe UI, Helvetica, Arial, sans-serif, Apple Color Emoji, Segoe UI Emoji&quot;&gt;&lt;span style=&quot;font-size: 16px&quot;&gt;&amp;nbsp;&lt;/span&gt;&lt;/font&gt;&lt;/div&gt;&lt;span style=&quot;color: rgb(36 , 41 , 47) ; font-family: , &amp;#34;blinkmacsystemfont&amp;#34; , &amp;#34;segoe ui&amp;#34; , &amp;#34;helvetica&amp;#34; , &amp;#34;arial&amp;#34; , sans-serif , &amp;#34;apple color emoji&amp;#34; , &amp;#34;segoe ui emoji&amp;#34; ; font-size: 16px ; text-align: left ; background-color: rgb(255 , 255 , 255)&quot;&gt;Interpret&lt;br&gt;&amp;nbsp;Next Navigation&lt;br&gt;&amp;nbsp;Instruction&lt;/span&gt;" style="shape=mxgraph.flowchart.data;strokeWidth=2;gradientColor=none;gradientDirection=north;fontStyle=0;html=1;" vertex="1" parent="1">
          <mxGeometry x="240" y="919" width="159" height="80" as="geometry" />
        </mxCell>
        <mxCell id="olzbY2l3YCy1RPZY9AUt-64" style="edgeStyle=orthogonalEdgeStyle;rounded=0;orthogonalLoop=1;jettySize=auto;html=1;entryX=0.568;entryY=0.008;entryDx=0;entryDy=0;entryPerimeter=0;fontSize=13;" edge="1" parent="1" source="olzbY2l3YCy1RPZY9AUt-60" target="olzbY2l3YCy1RPZY9AUt-62">
          <mxGeometry relative="1" as="geometry" />
        </mxCell>
        <mxCell id="olzbY2l3YCy1RPZY9AUt-60" value="&lt;div style=&quot;text-align: left ; font-size: 15px&quot;&gt;&lt;span style=&quot;color: rgb(36 , 41 , 47) ; background-color: rgb(255 , 255 , 255)&quot;&gt;&lt;font style=&quot;font-size: 15px&quot;&gt;&amp;nbsp;Calculate next&amp;nbsp;&lt;/font&gt;&lt;/span&gt;&lt;/div&gt;&lt;div style=&quot;text-align: left ; font-size: 15px&quot;&gt;&lt;span style=&quot;color: rgb(36 , 41 , 47) ; background-color: rgb(255 , 255 , 255)&quot;&gt;&lt;font style=&quot;font-size: 15px&quot;&gt;Coordinates&lt;/font&gt;&lt;/span&gt;&lt;br&gt;&lt;/div&gt;" style="shape=mxgraph.flowchart.data;strokeWidth=2;gradientColor=none;gradientDirection=north;fontStyle=0;html=1;" vertex="1" parent="1">
          <mxGeometry x="231" y="1200" width="159" height="80" as="geometry" />
        </mxCell>
        <mxCell id="olzbY2l3YCy1RPZY9AUt-95" style="edgeStyle=orthogonalEdgeStyle;rounded=0;orthogonalLoop=1;jettySize=auto;html=1;entryX=0.095;entryY=0.5;entryDx=0;entryDy=0;entryPerimeter=0;fontSize=13;" edge="1" parent="1" source="olzbY2l3YCy1RPZY9AUt-62" target="olzbY2l3YCy1RPZY9AUt-71">
          <mxGeometry relative="1" as="geometry">
            <Array as="points">
              <mxPoint x="140" y="1370" />
              <mxPoint x="140" y="720" />
            </Array>
          </mxGeometry>
        </mxCell>
        <mxCell id="olzbY2l3YCy1RPZY9AUt-62" value="&lt;div style=&quot;text-align: left&quot;&gt;&lt;font color=&quot;#24292f&quot; size=&quot;1&quot;&gt;&lt;span style=&quot;background-color: rgb(255 , 255 , 255) ; font-size: 15px&quot;&gt;Move next Grid&lt;/span&gt;&lt;/font&gt;&lt;/div&gt;" style="shape=mxgraph.flowchart.data;strokeWidth=2;gradientColor=none;gradientDirection=north;fontStyle=0;html=1;" vertex="1" parent="1">
          <mxGeometry x="220" y="1330" width="159" height="80" as="geometry" />
        </mxCell>
        <mxCell id="olzbY2l3YCy1RPZY9AUt-68" style="edgeStyle=orthogonalEdgeStyle;rounded=0;orthogonalLoop=1;jettySize=auto;html=1;fontSize=13;" edge="1" parent="1" source="olzbY2l3YCy1RPZY9AUt-65" target="olzbY2l3YCy1RPZY9AUt-55">
          <mxGeometry relative="1" as="geometry" />
        </mxCell>
        <mxCell id="olzbY2l3YCy1RPZY9AUt-69" value="No" style="edgeLabel;html=1;align=center;verticalAlign=middle;resizable=0;points=[];fontSize=13;" vertex="1" connectable="0" parent="olzbY2l3YCy1RPZY9AUt-68">
          <mxGeometry x="0.1979" y="-2" relative="1" as="geometry">
            <mxPoint as="offset" />
          </mxGeometry>
        </mxCell>
        <mxCell id="olzbY2l3YCy1RPZY9AUt-75" value="" style="edgeStyle=orthogonalEdgeStyle;rounded=0;orthogonalLoop=1;jettySize=auto;html=1;fontSize=13;" edge="1" parent="1" source="olzbY2l3YCy1RPZY9AUt-65" target="4">
          <mxGeometry relative="1" as="geometry">
            <Array as="points">
              <mxPoint x="320" y="470" />
              <mxPoint x="320" y="470" />
            </Array>
          </mxGeometry>
        </mxCell>
        <mxCell id="olzbY2l3YCy1RPZY9AUt-65" value="Is Correct&lt;br&gt;?" style="rhombus;whiteSpace=wrap;html=1;fontSize=13;" vertex="1" parent="1">
          <mxGeometry x="280" y="320" width="80" height="80" as="geometry" />
        </mxCell>
        <mxCell id="olzbY2l3YCy1RPZY9AUt-93" value="" style="edgeStyle=orthogonalEdgeStyle;rounded=0;orthogonalLoop=1;jettySize=auto;html=1;fontSize=13;" edge="1" parent="1" source="olzbY2l3YCy1RPZY9AUt-71" target="13">
          <mxGeometry relative="1" as="geometry" />
        </mxCell>
        <mxCell id="olzbY2l3YCy1RPZY9AUt-71" value="&lt;div&gt;&lt;font color=&quot;#24292f&quot;&gt;&lt;span style=&quot;font-size: 13px&quot;&gt;Get Current Rover&lt;/span&gt;&lt;/font&gt;&lt;/div&gt;&lt;div&gt;&lt;font color=&quot;#24292f&quot;&gt;&lt;span style=&quot;font-size: 13px&quot;&gt;&amp;nbsp;Face Orientation&lt;/span&gt;&lt;/font&gt;&lt;/div&gt;" style="shape=mxgraph.flowchart.data;strokeWidth=2;gradientColor=none;gradientDirection=north;fontStyle=0;html=1;" vertex="1" parent="1">
          <mxGeometry x="250.5" y="680" width="159" height="80" as="geometry" />
        </mxCell>
        <mxCell id="olzbY2l3YCy1RPZY9AUt-84" value="" style="edgeStyle=orthogonalEdgeStyle;rounded=0;orthogonalLoop=1;jettySize=auto;html=1;fontSize=13;" edge="1" parent="1" source="olzbY2l3YCy1RPZY9AUt-80" target="olzbY2l3YCy1RPZY9AUt-60">
          <mxGeometry relative="1" as="geometry">
            <Array as="points">
              <mxPoint x="320" y="1180" />
              <mxPoint x="320" y="1180" />
            </Array>
          </mxGeometry>
        </mxCell>
        <mxCell id="olzbY2l3YCy1RPZY9AUt-85" style="edgeStyle=orthogonalEdgeStyle;rounded=0;orthogonalLoop=1;jettySize=auto;html=1;fontSize=13;" edge="1" parent="1" source="olzbY2l3YCy1RPZY9AUt-80" target="4">
          <mxGeometry relative="1" as="geometry">
            <mxPoint x="630" y="660" as="targetPoint" />
            <Array as="points">
              <mxPoint x="590" y="1100" />
              <mxPoint x="590" y="480" />
            </Array>
          </mxGeometry>
        </mxCell>
        <mxCell id="olzbY2l3YCy1RPZY9AUt-86" value="Yes" style="edgeLabel;html=1;align=center;verticalAlign=middle;resizable=0;points=[];fontSize=13;" vertex="1" connectable="0" parent="olzbY2l3YCy1RPZY9AUt-85">
          <mxGeometry x="-0.7193" y="2" relative="1" as="geometry">
            <mxPoint as="offset" />
          </mxGeometry>
        </mxCell>
        <mxCell id="olzbY2l3YCy1RPZY9AUt-80" value="Is All Complete?" style="rhombus;whiteSpace=wrap;html=1;fontSize=13;" vertex="1" parent="1">
          <mxGeometry x="279.5" y="1060" width="80" height="80" as="geometry" />
        </mxCell>
        <mxCell id="olzbY2l3YCy1RPZY9AUt-87" value="No" style="edgeLabel;html=1;align=center;verticalAlign=middle;resizable=0;points=[];fontSize=13;" vertex="1" connectable="0" parent="1">
          <mxGeometry x="499.5" y="1108" as="geometry">
            <mxPoint x="-179" y="61" as="offset" />
          </mxGeometry>
        </mxCell>
        <mxCell id="olzbY2l3YCy1RPZY9AUt-92" value="" style="edgeStyle=orthogonalEdgeStyle;rounded=0;orthogonalLoop=1;jettySize=auto;html=1;fontSize=13;" edge="1" parent="1" source="olzbY2l3YCy1RPZY9AUt-91" target="olzbY2l3YCy1RPZY9AUt-71">
          <mxGeometry relative="1" as="geometry" />
        </mxCell>
        <mxCell id="olzbY2l3YCy1RPZY9AUt-101" style="edgeStyle=orthogonalEdgeStyle;rounded=0;orthogonalLoop=1;jettySize=auto;html=1;entryX=0;entryY=0.5;entryDx=0;entryDy=0;entryPerimeter=0;fontSize=13;" edge="1" parent="1" source="olzbY2l3YCy1RPZY9AUt-91" target="olzbY2l3YCy1RPZY9AUt-97">
          <mxGeometry relative="1" as="geometry" />
        </mxCell>
        <mxCell id="olzbY2l3YCy1RPZY9AUt-91" value="Is Exists next?" style="rhombus;whiteSpace=wrap;html=1;fontSize=13;" vertex="1" parent="1">
          <mxGeometry x="290" y="550" width="80" height="80" as="geometry" />
        </mxCell>
        <mxCell id="olzbY2l3YCy1RPZY9AUt-97" value="end" style="shape=mxgraph.flowchart.terminator;strokeWidth=2;gradientColor=none;gradientDirection=north;fontStyle=0;html=1;" vertex="1" parent="1">
          <mxGeometry x="439.5" y="575" width="120" height="30" as="geometry" />
        </mxCell>
        <mxCell id="olzbY2l3YCy1RPZY9AUt-102" value="No" style="edgeLabel;html=1;align=center;verticalAlign=middle;resizable=0;points=[];fontSize=13;" vertex="1" connectable="0" parent="1">
          <mxGeometry x="418" y="371" as="geometry">
            <mxPoint x="-14" y="218" as="offset" />
          </mxGeometry>
        </mxCell>
        <mxCell id="olzbY2l3YCy1RPZY9AUt-103" value="Yes" style="edgeLabel;html=1;align=center;verticalAlign=middle;resizable=0;points=[];fontSize=13;" vertex="1" connectable="0" parent="1">
          <mxGeometry x="430" y="381" as="geometry">
            <mxPoint x="-103" y="269" as="offset" />
          </mxGeometry>
        </mxCell>
        <mxCell id="olzbY2l3YCy1RPZY9AUt-104" value="Yes" style="edgeLabel;html=1;align=center;verticalAlign=middle;resizable=0;points=[];fontSize=13;" vertex="1" connectable="0" parent="1">
          <mxGeometry x="421" y="146" as="geometry">
            <mxPoint x="-103" y="269" as="offset" />
          </mxGeometry>
        </mxCell>
      </root>
    </mxGraphModel>
  </diagram>
</mxfile>
